<?xml version="1.0" encoding="utf-8"?>
<!-- Generator: Adobe Illustrator 21.0.0, SVG Export Plug-In . SVG Version: 6.00 Build 0)  -->
<svg version="1.1" id="Layer_1" xmlns="http://www.w3.org/2000/svg" xmlns:xlink="http://www.w3.org/1999/xlink" x="0px" y="0px"
	 viewBox="0 0 48 48" style="enable-background:new 0 0 48 48;" xml:space="preserve">
<style type="text/css">
	.st0{fill:#494949;}
</style>
<g>
	<path class="st0" d="M20,34c-2.8,0-5,2.2-5,5s2.2,5,5,5c2.8,0,5-2.2,5-5S22.8,34,20,34z M20,42c-1.7,0-3-1.3-3-3s1.3-3,3-3
		c1.7,0,3,1.3,3,3S21.7,42,20,42z"/>
	<path class="st0" d="M37,34c-2.8,0-5,2.2-5,5s2.2,5,5,5c2.8,0,5-2.2,5-5S39.8,34,37,34z M37,42c-1.7,0-3-1.3-3-3s1.3-3,3-3
		s3,1.3,3,3S38.7,42,37,42z"/>
	<path class="st0" d="M47.4,12.1c-0.5-0.2-1.1,0-1.3,0.5l-5.9,14.2C39.7,28,38.2,29,37,29H19c-1.2,0-2.6-1-3-2.2L9.6,7.5
		C8.9,5.6,6.8,4,4.7,4H1C0.4,4,0,4.4,0,5c0,0.6,0.4,1,1,1h3.7c1.2,0,2.6,1,3,2.2l6.4,19.3c0.7,2,2.8,3.5,4.9,3.5h18
		c2.1,0,4.3-1.5,5.1-3.4l5.9-14.2C48.1,12.9,47.9,12.3,47.4,12.1z"/>
	<path class="st0" d="M17,14h23c0.6,0,1-0.4,1-1c0-0.6-0.4-1-1-1H17c-0.6,0-1,0.4-1,1C16,13.6,16.4,14,17,14z"/>
</g>
</svg>
