<?xml version="1.0" encoding="utf-8"?>
<!-- Generator: Adobe Illustrator 21.0.0, SVG Export Plug-In . SVG Version: 6.00 Build 0)  -->
<svg version="1.1" id="Layer_1" xmlns="http://www.w3.org/2000/svg" xmlns:xlink="http://www.w3.org/1999/xlink" x="0px" y="0px"
	 viewBox="0 0 170.7 48" style="enable-background:new 0 0 170.7 48;" xml:space="preserve">
<style type="text/css">
	.st0{fill:#45433F;}
</style>
<g>
	<path class="st0" d="M4.7,11.4v10.3h6.7v3.7H4.7v14.9H0.3V7.7H12v3.7H4.7z"/>
	<path class="st0" d="M25.4,40.3V7.7h4.4v32.7h-4.4V40.3z"/>
	<path class="st0" d="M55.9,40.3c-1.8-5.4-3.7-10.8-5.4-16.2c-0.4-1.3-0.9-2.6-1.2-4c-0.4-1.6-0.6-3.3-1.1-4.9
		c0.2,1.6,0.3,3.3,0.4,4.9c0.4,6.7,0.4,13.5,0.5,20.2h-4.4V7.7h4.1c2.8,8.2,5.7,16.4,7.7,24.8c-0.5-4.1-1-8.3-1-12.4V7.7H60v32.7
		h-4.1V40.3z"/>
	<path class="st0" d="M86.1,40.3c-1.8-5.4-3.7-10.8-5.4-16.2c-0.4-1.3-0.9-2.6-1.2-4c-0.4-1.6-0.6-3.3-1.1-4.9
		c0.2,1.6,0.3,3.3,0.4,4.9c0.4,6.7,0.4,13.5,0.5,20.2h-4.4V7.7H79c2.8,8.2,5.7,16.4,7.7,24.8c-0.5-4.1-1-8.3-1-12.4V7.7h4.4v32.7h-4
		V40.3z"/>
	<path class="st0" d="M105.1,40.3V7.7h4.4v29h7.2v3.7h-11.6V40.3z"/>
	<path class="st0" d="M129.4,40.3V7.7h11.7v3.7h-7.3v10.4h6.5v3.7h-6.5v11.1h7.3v3.7H129.4z"/>
	<path class="st0" d="M166.2,40.3c-1.8-5.4-3.7-10.8-5.4-16.2c-0.4-1.3-0.9-2.6-1.2-4c-0.4-1.6-0.6-3.3-1.1-4.9
		c0.2,1.6,0.3,3.3,0.4,4.9c0.4,6.7,0.4,13.5,0.5,20.2H155V7.7h4.1C162,15.9,165,24,167,32.5c-0.5-4.1-1-8.3-1-12.4V7.7h4.4v32.7
		h-4.2V40.3z"/>
</g>
</svg>
