<?xml version="1.0" encoding="utf-8"?>
<!-- Generator: Adobe Illustrator 21.0.0, SVG Export Plug-In . SVG Version: 6.00 Build 0)  -->
<svg version="1.1" id="Layer_1" xmlns="http://www.w3.org/2000/svg" xmlns:xlink="http://www.w3.org/1999/xlink" x="0px" y="0px"
	 viewBox="0 0 48 48" style="enable-background:new 0 0 48 48;" xml:space="preserve">
<style type="text/css">
	.st0{fill:#4A494A;}
	.st1{fill:none;}
</style>
<g>
	<g>
		<path class="st0" d="M24,24c5,0,9-4,9-9c0-5-4-9-9-9c-5,0-9,4-9,9C15,20,19,24,24,24z M24,8c3.9,0,7,3.1,7,7c0,3.9-3.1,7-7,7
			c-3.9,0-7-3.1-7-7C17,11.1,20.1,8,24,8z"/>
		<path class="st0" d="M24,28c-8.8,0-16,6.3-16,14h2c0-6.6,6.3-12,14-12s14,5.4,14,12h2C40,34.3,32.8,28,24,28z"/>
	</g>
	<g>
		<g>
			<rect y="0" class="st1" width="48" height="48"/>
		</g>
	</g>
</g>
</svg>
